# xmcd CD database file
#
# Track frame offsets:
#	150
#	35797
#	72531
#	104957
#	143338
#	182209
#	214230
#	240235
#
# Disc length: 3710 seconds
#
# Revision: 0
# Processed by: cddbd v1.5.2PL0 Copyright (c) Steve Scherf et al.
# Submitted via: CDex 1.70beta2
#
DISCID=7a0e7c08
DTITLE=Doublepulse - Silent Understanding
DYEAR=2015
DGENRE=Jazz
TTITLE0=Inspiring Nights
TTITLE1=It's A Normal Day
TTITLE2=Silent Understanding
TTITLE3=The Wind Tells
TTITLE4=Echo From The Past
TTITLE5=The Birth Of An Idea
TTITLE6=The Number You Have Dialed Is Not Assigned
TTITLE7=Turbulences
EXTD=YEAR: 2015
EXTT0=
EXTT1=
EXTT2=
EXTT3=
EXTT4=
EXTT5=
EXTT6=
EXTT7=
PLAYORDER=
